<svg width="93" height="93" viewBox="0 0 93 93" fill="none" xmlns="http://www.w3.org/2000/svg">
<rect x="80.9599" y="81.4369" width="67.8914" height="67.8914" transform="rotate(-180 80.9599 81.4369)" fill="black"/>
<path d="M11.0298 92.4462L82.3872 92.4462C88.0448 92.4462 92.5811 87.8589 92.5811 82.2523L92.5811 10.8949C92.5811 5.28826 88.0448 0.700996 82.3872 0.700996L11.0298 0.700993C5.42318 0.700993 0.835918 5.28826 0.835918 10.8949L0.835915 82.2523C0.835915 87.8589 5.42318 92.4462 11.0298 92.4462ZM21.2237 41.4766L41.6116 41.4766L51.8055 41.4766L72.1933 41.4766L72.1933 51.6706L51.8055 51.6706L41.6116 51.6706L21.2237 51.6706L21.2237 41.4766Z" fill="#FDD207"/>
</svg>
