<svg width="93" height="93" viewBox="0 0 93 93" fill="none" xmlns="http://www.w3.org/2000/svg">
<rect x="80.8767" y="81.4371" width="67.8914" height="67.8914" transform="rotate(-180 80.8767 81.4371)" fill="black"/>
<path d="M10.9462 92.4461L82.3036 92.4461C87.9612 92.4461 92.4975 87.8589 92.4975 82.2522L92.4975 10.8949C92.4975 5.2882 87.9612 0.700935 82.3036 0.700935L10.9462 0.700932C5.33957 0.700932 0.7523 5.2882 0.7523 10.8948L0.752297 82.2522C0.752297 87.8589 5.33956 92.4461 10.9462 92.4461ZM21.1401 41.4766L41.5279 41.4766L41.5279 21.0888L51.7219 21.0888L51.7219 41.4766L72.1097 41.4766L72.1097 51.6705L51.7219 51.6705L51.7219 72.0583L41.5279 72.0583L41.5279 51.6705L21.1401 51.6705L21.1401 41.4766Z" fill="#FDD207"/>
</svg>
